<?xml version="1.0" encoding="utf-8"?>
<!-- Generator: Adobe Illustrator 21.1.0, SVG Export Plug-In . SVG Version: 6.00 Build 0)  -->
<svg version="1.1" id="Layer_1" xmlns="http://www.w3.org/2000/svg" xmlns:xlink="http://www.w3.org/1999/xlink" x="0px" y="0px"
	 viewBox="0 0 1080 1080" style="enable-background:new 0 0 1080 1080;" xml:space="preserve">
<style type="text/css">
	.st0{fill:#EDEDED;}
	.st1{fill:#0033FF;}
	.st2{fill:#303030;}
	.st3{fill:#FFFFFF;}
</style>
<rect y="0.2" class="st1" width="1080" height="1079.8"/>
<g id="Symbol_12_">
	<path class="st3" d="M540,205c-185.1,0-335,149.9-335,335s149.9,335,335,335s335-149.9,335-335S725.1,205,540,205z M528,671.9
		l-24.7,72.3c-0.7,2.5-2.1,4.6-3.2,6.7c-3.2,4.9-7.1,8.5-12,11.3c-4.2,2.1-9.2,3.5-14.5,3.5c-3.5,0-6.7-0.7-10.2-1.8
		c-14.1-4.9-22.2-18.7-21.2-32.8C373.2,695.5,326,623.2,326,540c0-118.5,95.9-214.4,214.4-214.4c13.8,0,27.2,1.4,40.2,3.9
		c7.8-12,22.6-17.6,36.7-13c7.4,2.5,13,7.4,16.6,13.8c3.5,5.6,4.9,12.3,4.2,19c-0.4,2.5-0.7,4.9-1.4,7.1l-24.7,72.3L528,671.9z
		 M555.5,754l29.3-89.2c51.1-18.3,87.8-67,87.8-124.5c0-27.2-8.5-52.5-22.6-73.7l29.3-89.2c45.8,39.1,75.1,97.7,75.1,162.9
		C754.4,653.5,666.6,745.9,555.5,754z"/>
	<path class="st3" d="M407.8,540c0,46.5,24.3,87.8,61,111.1l83.2-243c-3.9-0.4-8.1-0.7-12-0.7C467,407.8,407.8,467,407.8,540z"/>
</g>
</svg>
